<?xml version="1.0" standalone="no"?>
<!DOCTYPE svg PUBLIC "-//W3C//DTD SVG 20010904//EN"
 "http://www.w3.org/TR/2001/REC-SVG-20010904/DTD/svg10.dtd">
<svg version="1.0" xmlns="http://www.w3.org/2000/svg"
 width="674.000000pt" height="674.000000pt" viewBox="0 0 674.000000 674.000000"
 preserveAspectRatio="xMidYMid meet">
<metadata>
Created by potrace 1.11, written by Peter Selinger 2001-2013
</metadata>
<g transform="translate(0.000000,674.000000) scale(0.100000,-0.100000)"
fill="#000000" stroke="none">
<path d="M405 6678 c3 -29 7 -80 10 -113 2 -33 7 -82 10 -110 6 -55 13 -139
20 -225 2 -30 6 -77 9 -105 8 -76 19 -207 20 -237 1 -16 3 -28 6 -28 3 0 5
-26 6 -58 1 -50 5 -105 19 -257 2 -22 7 -69 10 -105 3 -36 8 -81 10 -100 2
-19 6 -71 10 -115 3 -44 8 -100 10 -125 3 -25 7 -72 10 -105 3 -33 7 -76 9
-95 2 -19 7 -73 11 -120 7 -94 12 -157 21 -240 3 -30 7 -80 10 -110 2 -30 6
-80 9 -110 3 -30 8 -82 10 -115 3 -33 8 -85 11 -115 2 -30 7 -77 9 -105 2 -27
7 -77 10 -110 3 -33 8 -82 10 -110 3 -27 7 -75 10 -105 2 -30 7 -82 10 -115 9
-111 15 -180 20 -245 6 -66 13 -148 20 -209 3 -19 7 -70 10 -115 3 -45 7 -98
10 -118 3 -21 7 -68 10 -105 3 -37 7 -84 9 -103 4 -30 9 -85 21 -235 7 -82 17
-194 20 -230 9 -97 15 -164 20 -218 3 -31 8 -83 11 -115 3 -31 7 -77 9 -102 3
-51 14 -168 20 -220 2 -19 7 -69 9 -110 3 -41 8 -99 11 -127 3 -29 7 -77 10
-105 3 -29 8 -83 10 -119 3 -36 7 -87 10 -115 6 -56 15 -156 20 -227 4 -53 6
-57 27 -61 12 -2 65 -17 168 -46 46 -14 281 -78 350 -96 30 -8 72 -21 93 -29
20 -8 37 -13 37 -11 0 3 15 0 33 -5 17 -6 73 -21 122 -35 50 -14 122 -34 160
-45 39 -11 77 -21 85 -24 8 -2 42 -11 75 -20 33 -9 67 -18 75 -20 8 -2 80 -22
160 -45 80 -22 153 -42 162 -43 10 -2 21 -6 24 -10 4 -4 18 -7 31 -7 13 0 31
-4 41 -9 9 -5 37 -15 62 -20 37 -9 184 -49 240 -66 8 -3 40 -11 70 -19 30 -8
89 -25 130 -36 161 -46 209 -57 215 -52 3 3 5 1 5 -5 0 -5 6 -10 13 -11 6 -1
28 -3 47 -6 19 -2 40 -1 45 2 6 4 15 7 20 8 6 1 44 12 85 24 93 27 138 39 169
46 14 3 28 7 33 10 4 3 17 7 27 9 11 2 55 13 98 26 43 12 83 22 88 24 6 1 30
8 55 15 25 7 50 14 55 16 6 1 37 9 70 19 66 18 122 33 145 40 8 2 123 34 255
70 132 37 263 73 290 80 28 8 71 20 98 28 26 8 47 13 47 11 0 -2 12 1 28 7 15
6 50 17 77 24 61 17 367 102 565 157 80 22 153 42 162 43 10 0 20 3 22 6 5 4
11 58 21 194 3 39 8 81 10 95 2 14 7 63 10 110 3 47 8 101 10 121 2 20 6 69 9
110 4 41 9 97 12 124 3 28 7 70 9 95 10 130 16 198 21 229 2 19 7 73 10 120 3
47 7 100 9 116 4 38 13 131 21 215 3 36 7 83 9 105 3 22 7 74 10 115 3 41 7
91 10 110 2 19 6 71 10 114 3 43 7 95 10 115 2 20 7 70 10 111 4 41 9 93 11
115 2 22 6 72 9 110 3 39 8 88 10 110 3 22 7 72 10 110 2 39 7 88 9 110 3 22
8 72 11 110 3 39 8 93 11 120 2 28 6 77 9 110 2 33 6 87 10 120 7 68 12 121
20 215 3 36 8 85 10 110 2 25 7 77 10 115 5 66 11 136 20 230 2 22 7 69 10
105 3 36 7 81 10 100 2 19 6 76 9 125 3 50 8 99 10 110 2 11 7 56 11 100 7 80
9 102 20 245 4 41 8 89 11 105 2 17 6 62 8 100 5 64 8 105 21 235 3 25 7 78
11 119 3 41 7 90 9 110 2 20 7 68 10 106 3 39 8 86 10 105 2 19 7 73 10 120 6
81 8 102 19 215 3 28 8 78 11 113 l6 62 -2971 0 -2971 0 6 -52z"/>
</g>
</svg>
